<svg width="17" height="16" viewBox="0 0 17 16" fill="none" xmlns="http://www.w3.org/2000/svg">
<path d="M14.8838 6.98006H13.5398V5.62006C13.5398 5.43306 13.3886 5.28006 13.2038 5.28006H12.5318C12.347 5.28006 12.1958 5.43306 12.1958 5.62006V6.98006H10.8518C10.667 6.98006 10.5158 7.13306 10.5158 7.32006V8.00006C10.5158 8.18706 10.667 8.34006 10.8518 8.34006H12.1958V9.70006C12.1958 9.88706 12.347 10.0401 12.5318 10.0401H13.2038C13.3886 10.0401 13.5398 9.88706 13.5398 9.70006V8.34006H14.8838C15.0686 8.34006 15.2198 8.18706 15.2198 8.00006V7.32006C15.2198 7.13306 15.0686 6.98006 14.8838 6.98006ZM6.48379 8.00006C7.96849 8.00006 9.17179 6.78243 9.17179 5.28006C9.17179 3.77768 7.96849 2.56006 6.48379 2.56006C4.99909 2.56006 3.79579 3.77768 3.79579 5.28006C3.79579 6.78243 4.99909 8.00006 6.48379 8.00006ZM8.36539 8.68006H8.01469C7.54849 8.89681 7.02979 9.02006 6.48379 9.02006C5.93779 9.02006 5.42119 8.89681 4.95289 8.68006H4.60219C3.04399 8.68006 1.77979 9.95931 1.77979 11.5361V12.4201C1.77979 12.9832 2.23129 13.4401 2.78779 13.4401H10.1798C10.7363 13.4401 11.1878 12.9832 11.1878 12.4201V11.5361C11.1878 9.95931 9.92359 8.68006 8.36539 8.68006Z" fill="#3DACFF"/>
</svg>
