<svg width="17" height="14" viewBox="0 0 17 14" fill="none" xmlns="http://www.w3.org/2000/svg">
<path d="M0.5 1C0.5 0.734784 0.605357 0.48043 0.792893 0.292893C0.98043 0.105357 1.23478 0 1.5 0H3.5C3.76522 0 4.01957 0.105357 4.20711 0.292893C4.39464 0.48043 4.5 0.734784 4.5 1V13C4.5 13.2652 4.39464 13.5196 4.20711 13.7071C4.01957 13.8946 3.76522 14 3.5 14H1.5C1.23478 14 0.98043 13.8946 0.792893 13.7071C0.605357 13.5196 0.5 13.2652 0.5 13V1Z" fill="#757575"/>
<path d="M6.5 1C6.5 0.734784 6.60536 0.48043 6.79289 0.292893C6.98043 0.105357 7.23478 0 7.5 0H9.5C9.76522 0 10.0196 0.105357 10.2071 0.292893C10.3946 0.48043 10.5 0.734784 10.5 1V13C10.5 13.2652 10.3946 13.5196 10.2071 13.7071C10.0196 13.8946 9.76522 14 9.5 14H7.5C7.23478 14 6.98043 13.8946 6.79289 13.7071C6.60536 13.5196 6.5 13.2652 6.5 13V1Z" fill="#757575"/>
<path d="M13.5 0C13.2348 0 12.9804 0.105357 12.7929 0.292893C12.6054 0.48043 12.5 0.734784 12.5 1V13C12.5 13.2652 12.6054 13.5196 12.7929 13.7071C12.9804 13.8946 13.2348 14 13.5 14H15.5C15.7652 14 16.0196 13.8946 16.2071 13.7071C16.3946 13.5196 16.5 13.2652 16.5 13V1C16.5 0.734784 16.3946 0.48043 16.2071 0.292893C16.0196 0.105357 15.7652 0 15.5 0H13.5Z" fill="#757575"/>
</svg>
