<svg width="25" height="26" viewBox="0 0 25 26" fill="none" xmlns="http://www.w3.org/2000/svg">
<path d="M10.3421 1.72274C11.5073 0.468539 13.4925 0.468539 14.6577 1.72274C15.3516 2.46969 16.3824 2.80464 17.3829 2.60821C19.0627 2.27839 20.6688 3.44529 20.8742 5.14481C20.9965 6.15697 21.6336 7.03388 22.5585 7.463C24.1113 8.18353 24.7248 10.0716 23.892 11.5673C23.3961 12.4581 23.3961 13.542 23.892 14.4327C24.7248 15.9284 24.1113 17.8165 22.5585 18.537C21.6336 18.9662 20.9965 19.8431 20.8742 20.8552C20.6688 22.5548 19.0627 23.7217 17.3829 23.3918C16.3824 23.1954 15.3516 23.5304 14.6577 24.2773C13.4925 25.5315 11.5073 25.5315 10.3421 24.2773C9.64824 23.5304 8.61737 23.1954 7.61695 23.3918C5.93714 23.7217 4.33103 22.5548 4.12562 20.8552C4.00328 19.8431 3.36617 18.9662 2.44135 18.537C0.888491 17.8165 0.275012 15.9284 1.10778 14.4327C1.60375 13.542 1.60375 12.4581 1.10778 11.5673C0.275012 10.0716 0.888492 8.18353 2.44135 7.463C3.36617 7.03388 4.00328 6.15697 4.12562 5.14481C4.33103 3.44529 5.93714 2.27839 7.61695 2.60821C8.61737 2.80464 9.64824 2.46969 10.3421 1.72274Z" fill="#3B94ED"/>
<path d="M10.3314 8.53577L13.2096 15.6127L12.0851 15.3857L14.6956 8.53577H16.9983L12.5001 18.8173L8.00195 8.53577H10.3314Z" fill="white"/>
</svg>
