<svg width="106" height="32" viewBox="0 0 106 32" fill="none" xmlns="http://www.w3.org/2000/svg">
<path d="M14.5625 0V0.605966H10.3731L19.4005 24.0676L28.6008 0.605966H24.6723V0H33V0.605966H29.2536L16.9639 32H15.6992L3.66277 0.605969H0V0H14.5625Z" fill="#121212"/>
<path d="M39.3379 14.6035V22H38.0664V14.6035H39.3379ZM37.9707 12.6416C37.9707 12.4365 38.0322 12.2633 38.1553 12.1221C38.2829 11.9808 38.4697 11.9102 38.7158 11.9102C38.9574 11.9102 39.1419 11.9808 39.2695 12.1221C39.4017 12.2633 39.4678 12.4365 39.4678 12.6416C39.4678 12.8376 39.4017 13.0062 39.2695 13.1475C39.1419 13.2842 38.9574 13.3525 38.7158 13.3525C38.4697 13.3525 38.2829 13.2842 38.1553 13.1475C38.0322 13.0062 37.9707 12.8376 37.9707 12.6416ZM43.1328 15.7656V22H41.8682V14.6035H43.0986L43.1328 15.7656ZM45.4434 14.5625L45.4365 15.7383C45.3317 15.7155 45.2314 15.7018 45.1357 15.6973C45.0446 15.6882 44.9398 15.6836 44.8213 15.6836C44.5296 15.6836 44.2721 15.7292 44.0488 15.8203C43.8255 15.9115 43.6364 16.0391 43.4814 16.2031C43.3265 16.3672 43.2035 16.5632 43.1123 16.791C43.0257 17.0143 42.9688 17.2604 42.9414 17.5293L42.5859 17.7344C42.5859 17.2878 42.6292 16.8685 42.7158 16.4766C42.807 16.0846 42.946 15.7383 43.1328 15.4375C43.3197 15.1322 43.5566 14.8952 43.8438 14.7266C44.1354 14.5534 44.4818 14.4668 44.8828 14.4668C44.974 14.4668 45.0788 14.4782 45.1973 14.501C45.3158 14.5192 45.3978 14.5397 45.4434 14.5625ZM51.2002 20.7354V16.9277C51.2002 16.6361 51.141 16.3831 51.0225 16.1689C50.9085 15.9502 50.7354 15.7816 50.5029 15.6631C50.2705 15.5446 49.9834 15.4854 49.6416 15.4854C49.3226 15.4854 49.0423 15.54 48.8008 15.6494C48.5638 15.7588 48.377 15.9023 48.2402 16.0801C48.1081 16.2578 48.042 16.4492 48.042 16.6543H46.7773C46.7773 16.39 46.8457 16.1279 46.9824 15.8682C47.1191 15.6084 47.3151 15.3737 47.5703 15.1641C47.8301 14.9499 48.14 14.7812 48.5 14.6582C48.8646 14.5306 49.2702 14.4668 49.7168 14.4668C50.2546 14.4668 50.7285 14.5579 51.1387 14.7402C51.5534 14.9225 51.877 15.1982 52.1094 15.5674C52.3464 15.932 52.4648 16.39 52.4648 16.9414V20.3867C52.4648 20.6328 52.4854 20.8949 52.5264 21.1729C52.5719 21.4508 52.638 21.6901 52.7246 21.8906V22H51.4053C51.3415 21.8542 51.2913 21.6605 51.2549 21.4189C51.2184 21.1729 51.2002 20.945 51.2002 20.7354ZM51.4189 17.5156L51.4326 18.4043H50.1543C49.7943 18.4043 49.473 18.4339 49.1904 18.4932C48.9079 18.5479 48.6709 18.6322 48.4795 18.7461C48.2881 18.86 48.1423 19.0036 48.042 19.1768C47.9417 19.3454 47.8916 19.5436 47.8916 19.7715C47.8916 20.0039 47.944 20.2158 48.0488 20.4072C48.1536 20.5986 48.3109 20.7513 48.5205 20.8652C48.7347 20.9746 48.9967 21.0293 49.3066 21.0293C49.694 21.0293 50.0358 20.9473 50.332 20.7832C50.6283 20.6191 50.863 20.4186 51.0361 20.1816C51.2139 19.9447 51.3096 19.7145 51.3232 19.4912L51.8633 20.0996C51.8314 20.291 51.7448 20.5029 51.6035 20.7354C51.4622 20.9678 51.2731 21.1911 51.0361 21.4053C50.8037 21.6149 50.5257 21.7904 50.2021 21.9316C49.8831 22.0684 49.5231 22.1367 49.1221 22.1367C48.6208 22.1367 48.181 22.0387 47.8027 21.8428C47.429 21.6468 47.1374 21.3848 46.9277 21.0566C46.7227 20.724 46.6201 20.3525 46.6201 19.9424C46.6201 19.5459 46.6976 19.1973 46.8525 18.8965C47.0075 18.5911 47.2308 18.3382 47.5225 18.1377C47.8141 17.9326 48.165 17.7777 48.5752 17.6729C48.9854 17.568 49.4434 17.5156 49.9492 17.5156H51.4189ZM56.3281 11.5V22H55.0566V11.5H56.3281ZM70.6787 12.0469V22H69.3525L64.3418 14.3232V22H63.0225V12.0469H64.3418L69.373 19.7441V12.0469H70.6787ZM77.6865 20.7354V16.9277C77.6865 16.6361 77.6273 16.3831 77.5088 16.1689C77.3949 15.9502 77.2217 15.7816 76.9893 15.6631C76.7568 15.5446 76.4697 15.4854 76.1279 15.4854C75.8089 15.4854 75.5286 15.54 75.2871 15.6494C75.0501 15.7588 74.8633 15.9023 74.7266 16.0801C74.5944 16.2578 74.5283 16.4492 74.5283 16.6543H73.2637C73.2637 16.39 73.332 16.1279 73.4688 15.8682C73.6055 15.6084 73.8014 15.3737 74.0566 15.1641C74.3164 14.9499 74.6263 14.7812 74.9863 14.6582C75.3509 14.5306 75.7565 14.4668 76.2031 14.4668C76.7409 14.4668 77.2148 14.5579 77.625 14.7402C78.0397 14.9225 78.3633 15.1982 78.5957 15.5674C78.8327 15.932 78.9512 16.39 78.9512 16.9414V20.3867C78.9512 20.6328 78.9717 20.8949 79.0127 21.1729C79.0583 21.4508 79.1243 21.6901 79.2109 21.8906V22H77.8916C77.8278 21.8542 77.7777 21.6605 77.7412 21.4189C77.7048 21.1729 77.6865 20.945 77.6865 20.7354ZM77.9053 17.5156L77.9189 18.4043H76.6406C76.2806 18.4043 75.9593 18.4339 75.6768 18.4932C75.3942 18.5479 75.1572 18.6322 74.9658 18.7461C74.7744 18.86 74.6286 19.0036 74.5283 19.1768C74.4281 19.3454 74.3779 19.5436 74.3779 19.7715C74.3779 20.0039 74.4303 20.2158 74.5352 20.4072C74.64 20.5986 74.7972 20.7513 75.0068 20.8652C75.221 20.9746 75.4831 21.0293 75.793 21.0293C76.1803 21.0293 76.5221 20.9473 76.8184 20.7832C77.1146 20.6191 77.3493 20.4186 77.5225 20.1816C77.7002 19.9447 77.7959 19.7145 77.8096 19.4912L78.3496 20.0996C78.3177 20.291 78.2311 20.5029 78.0898 20.7354C77.9486 20.9678 77.7594 21.1911 77.5225 21.4053C77.29 21.6149 77.012 21.7904 76.6885 21.9316C76.3695 22.0684 76.0094 22.1367 75.6084 22.1367C75.1071 22.1367 74.6673 22.0387 74.2891 21.8428C73.9154 21.6468 73.6237 21.3848 73.4141 21.0566C73.209 20.724 73.1064 20.3525 73.1064 19.9424C73.1064 19.5459 73.1839 19.1973 73.3389 18.8965C73.4938 18.5911 73.7171 18.3382 74.0088 18.1377C74.3005 17.9326 74.6514 17.7777 75.0615 17.6729C75.4717 17.568 75.9297 17.5156 76.4355 17.5156H77.9053ZM84.5371 14.6035V15.5742H80.5381V14.6035H84.5371ZM81.8916 12.8057H83.1562V20.168C83.1562 20.4186 83.195 20.6077 83.2725 20.7354C83.3499 20.863 83.4502 20.9473 83.5732 20.9883C83.6963 21.0293 83.8285 21.0498 83.9697 21.0498C84.0745 21.0498 84.1839 21.0407 84.2979 21.0225C84.4163 20.9997 84.5052 20.9814 84.5645 20.9678L84.5713 22C84.471 22.0319 84.3389 22.0615 84.1748 22.0889C84.0153 22.1208 83.8216 22.1367 83.5938 22.1367C83.2839 22.1367 82.999 22.0752 82.7393 21.9521C82.4795 21.8291 82.2721 21.624 82.1172 21.3369C81.9668 21.0452 81.8916 20.6533 81.8916 20.1611V12.8057ZM87.8945 14.6035V22H86.623V14.6035H87.8945ZM86.5273 12.6416C86.5273 12.4365 86.5889 12.2633 86.7119 12.1221C86.8395 11.9808 87.0264 11.9102 87.2725 11.9102C87.514 11.9102 87.6986 11.9808 87.8262 12.1221C87.9583 12.2633 88.0244 12.4365 88.0244 12.6416C88.0244 12.8376 87.9583 13.0062 87.8262 13.1475C87.6986 13.2842 87.514 13.3525 87.2725 13.3525C87.0264 13.3525 86.8395 13.2842 86.7119 13.1475C86.5889 13.0062 86.5273 12.8376 86.5273 12.6416ZM90.0898 18.3838V18.2266C90.0898 17.6934 90.1673 17.1989 90.3223 16.7432C90.4772 16.2829 90.7005 15.8841 90.9922 15.5469C91.2839 15.2051 91.637 14.9408 92.0518 14.7539C92.4665 14.5625 92.9313 14.4668 93.4463 14.4668C93.9658 14.4668 94.4329 14.5625 94.8477 14.7539C95.2669 14.9408 95.6224 15.2051 95.9141 15.5469C96.2103 15.8841 96.4359 16.2829 96.5908 16.7432C96.7458 17.1989 96.8232 17.6934 96.8232 18.2266V18.3838C96.8232 18.917 96.7458 19.4115 96.5908 19.8672C96.4359 20.3229 96.2103 20.7217 95.9141 21.0635C95.6224 21.4007 95.2692 21.665 94.8545 21.8564C94.4443 22.0433 93.9795 22.1367 93.46 22.1367C92.9404 22.1367 92.4733 22.0433 92.0586 21.8564C91.6439 21.665 91.2884 21.4007 90.9922 21.0635C90.7005 20.7217 90.4772 20.3229 90.3223 19.8672C90.1673 19.4115 90.0898 18.917 90.0898 18.3838ZM91.3545 18.2266V18.3838C91.3545 18.7529 91.3978 19.1016 91.4844 19.4297C91.571 19.7533 91.7008 20.0404 91.874 20.291C92.0518 20.5417 92.2728 20.7399 92.5371 20.8857C92.8014 21.027 93.109 21.0977 93.46 21.0977C93.8063 21.0977 94.1094 21.027 94.3691 20.8857C94.6335 20.7399 94.8522 20.5417 95.0254 20.291C95.1986 20.0404 95.3285 19.7533 95.415 19.4297C95.5062 19.1016 95.5518 18.7529 95.5518 18.3838V18.2266C95.5518 17.862 95.5062 17.5179 95.415 17.1943C95.3285 16.8662 95.1963 16.5768 95.0186 16.3262C94.8454 16.071 94.6266 15.8704 94.3623 15.7246C94.1025 15.5788 93.7972 15.5059 93.4463 15.5059C93.0999 15.5059 92.7946 15.5788 92.5303 15.7246C92.2705 15.8704 92.0518 16.071 91.874 16.3262C91.7008 16.5768 91.571 16.8662 91.4844 17.1943C91.3978 17.5179 91.3545 17.862 91.3545 18.2266ZM100.174 16.1826V22H98.9092V14.6035H100.105L100.174 16.1826ZM99.873 18.0215L99.3467 18.001C99.3512 17.4951 99.4264 17.028 99.5723 16.5996C99.7181 16.1667 99.9232 15.7907 100.188 15.4717C100.452 15.1527 100.766 14.9066 101.131 14.7334C101.5 14.5557 101.908 14.4668 102.354 14.4668C102.719 14.4668 103.047 14.5169 103.339 14.6172C103.631 14.7129 103.879 14.8678 104.084 15.082C104.294 15.2962 104.453 15.5742 104.562 15.916C104.672 16.2533 104.727 16.6657 104.727 17.1533V22H103.455V17.1396C103.455 16.7523 103.398 16.4424 103.284 16.21C103.17 15.973 103.004 15.8021 102.785 15.6973C102.566 15.5879 102.298 15.5332 101.979 15.5332C101.664 15.5332 101.377 15.5993 101.117 15.7314C100.862 15.8636 100.641 16.0459 100.454 16.2783C100.272 16.5107 100.128 16.7773 100.023 17.0781C99.9232 17.3743 99.873 17.6888 99.873 18.0215Z" fill="#121212"/>
</svg>
